<?xml version="1.0" encoding="UTF-8"?>
<svg xmlns="http://www.w3.org/2000/svg" xmlns:xlink="http://www.w3.org/1999/xlink" viewBox="0 0 24 24" width="24px" height="24px">
<g id="surface61103278">
<path style=" stroke:none;fill-rule:nonzero;fill:rgb(100%,100%,100%);fill-opacity:1;" d="M 10.398438 2.398438 C 5.992188 2.398438 2.398438 5.992188 2.398438 10.398438 C 2.398438 14.808594 5.992188 18.398438 10.398438 18.398438 C 12.316406 18.398438 14.078125 17.71875 15.457031 16.589844 L 20.234375 21.367188 C 20.433594 21.574219 20.734375 21.660156 21.011719 21.585938 C 21.292969 21.511719 21.511719 21.292969 21.585938 21.011719 C 21.660156 20.734375 21.574219 20.433594 21.367188 20.234375 L 16.589844 15.457031 C 17.71875 14.078125 18.398438 12.316406 18.398438 10.398438 C 18.398438 5.992188 14.808594 2.398438 10.398438 2.398438 Z M 10.398438 4 C 13.945312 4 16.800781 6.855469 16.800781 10.398438 C 16.800781 13.945312 13.945312 16.800781 10.398438 16.800781 C 6.855469 16.800781 4 13.945312 4 10.398438 C 4 6.855469 6.855469 4 10.398438 4 Z M 10.398438 4 "/>
</g>
</svg>
